<svg id="Layer_1" data-name="Layer 1" xmlns="http://www.w3.org/2000/svg" viewBox="0 0 683.73 226"><defs><style>.cls-1{fill:#fff;}</style></defs><path class="cls-1" d="M358.63,125.43q0,27.84-13.65,42.33t-40,14.48q-26,0-39.79-14.56t-13.85-42.4q0-27.54,13.77-42.06t40-14.52q26.34,0,39.91,14.41T358.63,125.43Zm-75.89,0q0,32,22.25,32,11.33,0,16.79-7.77t5.47-24.22q0-16.52-5.55-24.41t-16.56-7.88Q282.73,93.14,282.74,125.43Z"/><path class="cls-1" d="M423.65,180.73V134.11c0-5.69-.82-10-2.45-12.87s-4.26-4.33-7.89-4.33q-7.47,0-10.78,6t-3.32,20.44v37.42h-29.5V95.25H392l3.7,10.57h1.74a23.29,23.29,0,0,1,10.44-9.06,37,37,0,0,1,15.36-3q14.18,0,22.07,8.23t7.88,23.16v55.6Z"/><path class="cls-1" d="M465.51,74q0-6.65,3.69-9.89t11.92-3.24c5.49,0,9.48,1.11,12,3.32s3.77,5.48,3.77,9.81q0,13-15.77,13Q465.51,87,465.51,74Zm30.25,106.75h-29.5V95.25h29.5Z"/><path class="cls-1" d="M590.73,137.8q0,21-11.28,32.71t-31.58,11.73q-19.46,0-31-12T505.4,137.8q0-20.9,11.28-32.48t31.65-11.58a45.11,45.11,0,0,1,22.25,5.36,36.53,36.53,0,0,1,14.9,15.35Q590.73,124.46,590.73,137.8Zm-55.38,0q0,11,2.94,16.79t9.89,5.77q6.86,0,9.69-5.77t2.83-16.79q0-10.94-2.87-16.52T548,115.7q-6.78,0-9.73,5.54T535.35,137.8Z"/><path class="cls-1" d="M654.23,180.73V134.11c0-5.69-.82-10-2.45-12.87s-4.26-4.33-7.89-4.33q-7.47,0-10.78,6t-3.32,20.44v37.42h-29.5V95.25h22.25l3.7,10.57H628a23.29,23.29,0,0,1,10.44-9.06,37,37,0,0,1,15.36-3q14.18,0,22.07,8.23t7.88,23.16v55.6Z"/><path class="cls-1" d="M128,93.91c16.23,22.7,16.12,47.4,0,70.65C162.83,149.38,162.83,108.91,128,93.91Z"/><path class="cls-1" d="M156.31,0H69.69A69.69,69.69,0,0,0,0,69.69v86.62A69.69,69.69,0,0,0,69.69,226h86.62A69.69,69.69,0,0,0,226,156.31V69.69A69.69,69.69,0,0,0,156.31,0ZM112.68,194.64C74.53,194.64,43,167.09,43,130.57,43,90,73.38,88.24,87.91,47a34.19,34.19,0,0,1,8,5.79c-2.79,37.42-26.36,45.73-26.36,77.8,0,15.69,11.68,37.17,40.57,39.56-41.62-59.84,19.67-65.88-5.64-142.39,3.29-6.94,10.48-12.07,13-13.88,12.8,72.75,64.86,62.7,64.86,116.71C182.35,162.75,153.28,194.64,112.68,194.64Z"/></svg>